<svg width="15" height="10" viewBox="0 0 15 10" fill="none" xmlns="http://www.w3.org/2000/svg">
<path d="M14.6378 7.37408C14.4995 6.02652 13.511 4.99216 12.3305 4.99216C11.3445 4.99216 8.80189 4.17318 7.45708 2.6076C7.21354 2.32407 6.98332 2.13686 6.76605 2.02148C6.53276 1.37791 6.17127 0.499932 5.29403 0.5C4.76446 0.5 4.35381 0.748606 4.19555 1.16505C4.08211 1.46366 4.05853 1.95231 4.51225 2.64833C4.44211 2.67394 4.37361 2.68909 4.30714 2.68909C3.94216 2.68909 3.59689 2.53298 3.19705 2.35221C2.72572 2.13911 2.19144 1.8976 1.53208 1.8976C0.915176 1.8976 0.506748 2.34085 0.318105 3.21508C0.171328 3.89545 0.171826 4.76016 0.172295 5.523L0.172324 6.85416C0.0646582 7.00501 0 7.20327 0 7.42347V8.63849C0 9.12158 0.310518 9.5 0.706904 9.5H14.1606C14.6234 9.5 15 9.06159 15 8.52277V8.1774C15 7.84486 14.8564 7.55069 14.6378 7.37408ZM10.8103 5.27118C11.4249 5.46218 11.9667 5.55792 12.3306 5.55792C13.1924 5.55792 13.9246 6.2549 14.1183 7.20014H13.0008C11.9953 7.20014 10.01 7.05709 8.00903 6.90757C7.97065 6.32492 8.07659 5.89599 8.31454 5.68746C8.53131 5.49742 8.86184 5.48885 9.1986 5.66464C9.62098 5.88508 10.0764 5.87774 10.4483 5.64452C10.6036 5.54711 10.7284 5.41651 10.8103 5.27118ZM4.63995 1.39398C4.71688 1.19152 4.96752 1.06573 5.29406 1.06573C5.72086 1.0657 5.96353 1.38995 6.17042 1.86649C5.72663 1.86888 5.34976 2.12721 5.03558 2.34273C5.01003 2.36026 4.98463 2.37762 4.95935 2.39481C4.6696 1.98099 4.55332 1.62195 4.63995 1.39398ZM1.53211 2.4634C2.10044 2.4634 2.56852 2.67503 3.02115 2.87967C3.44798 3.07262 3.85113 3.25488 4.30714 3.25488C4.66313 3.25488 4.97786 3.03895 5.28223 2.83019C5.73202 2.52159 6.1333 2.24713 6.66706 2.59761C6.18158 2.73915 5.72798 3.02125 5.31378 3.27896C4.90228 3.535 4.51359 3.77689 4.21869 3.79173C3.37755 3.83446 2.62828 3.42569 1.96734 3.06535C1.66963 2.90304 1.38354 2.7472 1.10329 2.63745C1.24251 2.49202 1.39576 2.4634 1.53211 2.4634ZM0.789463 3.35301C0.806602 3.27361 0.825264 3.20151 0.845156 3.13548C1.12972 3.23326 1.43824 3.40141 1.76133 3.57761C2.43656 3.94579 3.19726 4.36056 4.09395 4.36056C4.14214 4.36056 4.1908 4.35937 4.23981 4.35691C4.64522 4.33648 5.08128 4.06516 5.54294 3.77788C6.04494 3.46553 6.61028 3.11392 7.17272 3.07521C8.00728 4.01329 9.21044 4.68615 10.2911 5.09277C10.2691 5.11129 10.2451 5.12947 10.2179 5.14656C10.1053 5.21716 9.8001 5.35867 9.39747 5.1485C8.8967 4.88717 8.38263 4.91971 8.02233 5.23558C7.75866 5.46669 7.4741 5.93501 7.5198 6.871C7.5196 6.871 7.51945 6.87097 7.51928 6.87097C6.06264 6.76183 4.66148 6.65681 3.61395 6.6018C2.7924 5.2045 1.4463 4.55852 0.675732 4.3635C0.692432 3.99978 0.725186 3.65087 0.789463 3.35301ZM0.660293 4.93891C1.28859 5.11538 2.27695 5.60216 2.98468 6.57349C2.77479 6.56605 2.58826 6.56196 2.43003 6.56196H0.706875C0.690527 6.56196 0.674355 6.56281 0.658271 6.56411L0.658242 5.52276C0.658154 5.33288 0.658096 5.13643 0.660293 4.93891ZM7.71457 8.9343H0.706904C0.555088 8.9343 0.485918 8.78099 0.485918 8.63849V7.42347C0.485918 7.28097 0.555059 7.12762 0.706904 7.12762H2.43006C3.37998 7.12762 5.37542 7.27712 7.48802 7.43544C7.8114 7.45969 8.13636 7.48401 8.459 7.50792C8.51769 7.79165 8.48862 7.89834 8.48092 7.91928C8.45874 7.97924 8.33851 8.2259 7.71457 8.9343ZM12.259 8.9343H8.39845C8.83002 8.40551 8.9006 8.21516 8.92731 8.14268C8.98462 7.98749 8.99584 7.78995 8.96112 7.54489C10.277 7.64087 11.5167 7.72402 12.3979 7.75396C12.4095 8.11263 12.363 8.50797 12.259 8.9343ZM14.5141 8.52277C14.5141 8.74972 14.3554 8.93427 14.1606 8.93427H12.7622C12.8523 8.52062 12.8933 8.12952 12.8846 7.76525C12.9246 7.76563 12.9635 7.76587 13.0008 7.76587H14.1606C14.3555 7.76587 14.5141 7.95049 14.5141 8.1774V8.52277Z" fill="#FCBF00"/>
<path d="M8.59599 4.94106C8.73017 4.94106 8.83895 4.81443 8.83895 4.65821C8.83895 4.502 8.73017 4.37537 8.59599 4.37537C8.4618 4.37537 8.35303 4.502 8.35303 4.65821C8.35303 4.81443 8.4618 4.94106 8.59599 4.94106Z" fill="#FCBF00"/>
<path d="M7.78074 4.42593C7.91492 4.42593 8.0237 4.29929 8.0237 4.14308C8.0237 3.98687 7.91492 3.86023 7.78074 3.86023C7.64656 3.86023 7.53778 3.98687 7.53778 4.14308C7.53778 4.29929 7.64656 4.42593 7.78074 4.42593Z" fill="#FCBF00"/>
<path d="M3.45579 7.74811H1.81437C1.68019 7.74811 1.57141 7.87475 1.57141 8.03096C1.57141 8.18717 1.68019 8.31381 1.81437 8.31381H3.45579C3.58997 8.31381 3.69875 8.18717 3.69875 8.03096C3.69875 7.87475 3.58997 7.74811 3.45579 7.74811Z" fill="#FCBF00"/>
<path d="M3.76591 5.37173H5.61249C5.74667 5.37173 5.85545 5.24509 5.85545 5.08888C5.85545 4.93267 5.74667 4.80603 5.61249 4.80603H3.76591C3.63173 4.80603 3.52295 4.93267 3.52295 5.08888C3.52295 5.24512 3.63173 5.37173 3.76591 5.37173Z" fill="#FCBF00"/>
<path d="M4.01746 5.95045C4.01746 6.10666 4.12624 6.2333 4.26042 6.2333H6.107C6.24118 6.2333 6.34996 6.10666 6.34996 5.95045C6.34996 5.79424 6.24118 5.6676 6.107 5.6676H4.26042C4.12624 5.6676 4.01746 5.79424 4.01746 5.95045Z" fill="#FCBF00"/>
<path d="M7.04569 3.83303C7.17988 3.83303 7.28865 3.7064 7.28865 3.55018C7.28865 3.39397 7.17988 3.26733 7.04569 3.26733C6.91151 3.26733 6.80273 3.39397 6.80273 3.55018C6.80273 3.7064 6.91151 3.83303 7.04569 3.83303Z" fill="#FCBF00"/>
</svg>
