<svg width="28" height="28" viewBox="0 0 28 28" fill="none" xmlns="http://www.w3.org/2000/svg">
<path d="M0.292893 13.2929C-0.0976311 13.6834 -0.097631 14.3166 0.292893 14.7071C0.683418 15.0976 1.31658 15.0976 1.70711 14.7071L0.292893 13.2929ZM3.88889 11.1111L3.18178 10.404L3.18178 10.404L3.88889 11.1111ZM14 1L14.7071 0.292893C14.3166 -0.0976311 13.6834 -0.0976311 13.2929 0.292893L14 1ZM26.2929 14.7071C26.6834 15.0976 27.3166 15.0976 27.7071 14.7071C28.0976 14.3166 28.0976 13.6834 27.7071 13.2929L26.2929 14.7071ZM1.70711 14.7071L4.596 11.8182L3.18178 10.404L0.292893 13.2929L1.70711 14.7071ZM4.596 11.8182L14.7071 1.70711L13.2929 0.292893L3.18178 10.404L4.596 11.8182ZM13.2929 1.70711L23.404 11.8182L24.8182 10.404L14.7071 0.292893L13.2929 1.70711ZM23.404 11.8182L26.2929 14.7071L27.7071 13.2929L24.8182 10.404L23.404 11.8182ZM2.88889 11.1111V25.5556H4.88889V11.1111H2.88889ZM5.33333 28H9.66667V26H5.33333V28ZM12.1111 25.5556V19.7778H10.1111V25.5556H12.1111ZM12.5556 19.3333H15.4444V17.3333H12.5556V19.3333ZM15.8889 19.7778V25.5556H17.8889V19.7778H15.8889ZM18.3333 28H22.6667V26H18.3333V28ZM25.1111 25.5556V11.1111H23.1111V25.5556H25.1111ZM22.6667 28C24.0167 28 25.1111 26.9056 25.1111 25.5556H23.1111C23.1111 25.801 22.9121 26 22.6667 26V28ZM15.8889 25.5556C15.8889 26.9056 16.9833 28 18.3333 28V26C18.0879 26 17.8889 25.801 17.8889 25.5556H15.8889ZM15.4444 19.3333C15.6899 19.3333 15.8889 19.5323 15.8889 19.7778H17.8889C17.8889 18.4277 16.7945 17.3333 15.4444 17.3333V19.3333ZM12.1111 19.7778C12.1111 19.5323 12.3101 19.3333 12.5556 19.3333V17.3333C11.2055 17.3333 10.1111 18.4277 10.1111 19.7778H12.1111ZM9.66667 28C11.0167 28 12.1111 26.9056 12.1111 25.5556H10.1111C10.1111 25.801 9.91213 26 9.66667 26V28ZM2.88889 25.5556C2.88889 26.9056 3.9833 28 5.33333 28V26C5.08787 26 4.88889 25.801 4.88889 25.5556H2.88889ZM9.66667 28H18.3333V26H9.66667V28Z" fill="#B2B2B2"/>
</svg>
