<svg width="24" height="28" viewBox="0 0 24 28" fill="none" xmlns="http://www.w3.org/2000/svg">
<path d="M1 27H0C0 27.5523 0.447715 28 1 28L1 27ZM23 27V28C23.5523 28 24 27.5523 24 27H23ZM17.2857 6.77778C17.2857 9.33882 15.0002 11.5556 12 11.5556V13.5556C15.9428 13.5556 19.2857 10.5987 19.2857 6.77778H17.2857ZM12 11.5556C8.99979 11.5556 6.71429 9.33882 6.71429 6.77778H4.71429C4.71429 10.5987 8.05721 13.5556 12 13.5556V11.5556ZM6.71429 6.77778C6.71429 4.21674 8.99979 2 12 2V0C8.05721 0 4.71429 2.95686 4.71429 6.77778H6.71429ZM12 2C15.0002 2 17.2857 4.21674 17.2857 6.77778H19.2857C19.2857 2.95686 15.9428 0 12 0V2ZM2 27C2 22.0457 6.39616 17.8889 12 17.8889V15.8889C5.45358 15.8889 0 20.7858 0 27H2ZM12 17.8889C17.6038 17.8889 22 22.0457 22 27H24C24 20.7858 18.5464 15.8889 12 15.8889V17.8889ZM1 28H23V26H1V28Z" fill="#B2B2B2"/>
</svg>
