<svg width="36" height="36" viewBox="0 0 36 36" fill="none" xmlns="http://www.w3.org/2000/svg">
<rect x="11" y="11" width="14" height="14" rx="3" stroke="#B2B2B2" stroke-width="2"/>
<path d="M13.5 5C13.5 4.05719 13.5 3.58579 13.7929 3.29289C14.0858 3 14.5572 3 15.5 3H20.5C21.4428 3 21.9142 3 22.2071 3.29289C22.5 3.58579 22.5 4.05719 22.5 5V10.5H13.5V5Z" fill="#B2B2B2"/>
<path d="M13.5 31C13.5 31.9428 13.5 32.4142 13.7929 32.7071C14.0858 33 14.5572 33 15.5 33H20.5C21.4428 33 21.9142 33 22.2071 32.7071C22.5 32.4142 22.5 31.9428 22.5 31V25.5H13.5V31Z" fill="#B2B2B2"/>
</svg>
